REM DIRINDEX 1\2,1\3,1\4,1\5,1\6
REM DIRNAME folder01,folder02,folder03,folder04,folder05,folder06
TITLE ""
FILE "Disc3Track44.mp3" MP3
  TRACK 01 AUDIO
    TITLE "3:cjc030_05354"
    INDEX 01 00:00:00
  TRACK 02 AUDIO
    TITLE "0:"
    INDEX 01 00:01:07
  TRACK 03 AUDIO
    TITLE "4:cjc030_05355"
    INDEX 01 00:01:15
  TRACK 04 AUDIO
    TITLE "0:"
    INDEX 01 00:03:14
  TRACK 05 AUDIO
    TITLE "5:cjc030_05356"
    INDEX 01 00:03:23
  TRACK 06 AUDIO
    TITLE "0:"
    INDEX 01 00:04:36
  TRACK 07 AUDIO
    TITLE "6:cjc030_05357"
    INDEX 01 00:04:48
  TRACK 08 AUDIO
    TITLE "0:"
    INDEX 01 00:06:35
  TRACK 09 AUDIO
    TITLE "3:cjc030_05358"
    INDEX 01 00:07:09
  TRACK 10 AUDIO
    TITLE "0:"
    INDEX 01 00:08:30
  TRACK 11 AUDIO
    TITLE "4:cjc030_05359"
    INDEX 01 00:08:40
  TRACK 12 AUDIO
    TITLE "0:"
    INDEX 01 00:10:55
  TRACK 13 AUDIO
    TITLE "5:cjc030_05360"
    INDEX 01 00:10:63
  TRACK 14 AUDIO
    TITLE "0:"
    INDEX 01 00:12:12
  TRACK 15 AUDIO
    TITLE "6:cjc030_05361"
    INDEX 01 00:12:24
  TRACK 16 AUDIO
    TITLE "0:"
    INDEX 01 00:16:34
  TRACK 17 AUDIO
    TITLE "3:cjc030_05362"
    INDEX 01 00:17:10
  TRACK 18 AUDIO
    TITLE "0:"
    INDEX 01 00:18:33
  TRACK 19 AUDIO
    TITLE "4:cjc030_05363"
    INDEX 01 00:18:42
  TRACK 20 AUDIO
    TITLE "0:"
    INDEX 01 00:20:57
  TRACK 21 AUDIO
    TITLE "5:cjc030_05364"
    INDEX 01 00:20:67
  TRACK 22 AUDIO
    TITLE "0:"
    INDEX 01 00:22:13
  TRACK 23 AUDIO
    TITLE "6:cjc030_05365"
    INDEX 01 00:22:25
  TRACK 24 AUDIO
    TITLE "0:"
    INDEX 01 00:28:10
  TRACK 25 AUDIO
    TITLE "3:cjc030_05366"
    INDEX 01 00:28:53
  TRACK 26 AUDIO
    TITLE "0:"
    INDEX 01 00:30:14
  TRACK 27 AUDIO
    TITLE "4:cjc030_05367"
    INDEX 01 00:30:22
  TRACK 28 AUDIO
    TITLE "0:"
    INDEX 01 00:31:63
  TRACK 29 AUDIO
    TITLE "5:cjc030_05368"
    INDEX 01 00:31:69
  TRACK 30 AUDIO
    TITLE "0:"
    INDEX 01 00:33:32
  TRACK 31 AUDIO
    TITLE "3:cjc030_05369"
    INDEX 01 00:34:12
  TRACK 32 AUDIO
    TITLE "0:"
    INDEX 01 00:35:29
  TRACK 33 AUDIO
    TITLE "4:cjc030_05370"
    INDEX 01 00:35:37
  TRACK 34 AUDIO
    TITLE "0:"
    INDEX 01 00:37:67
  TRACK 35 AUDIO
    TITLE "5:cjc030_05371"
    INDEX 01 00:38:00
  TRACK 36 AUDIO
    TITLE "0:"
    INDEX 01 00:39:17
  TRACK 37 AUDIO
    TITLE "6:cjc030_05372"
    INDEX 01 00:39:31
  TRACK 38 AUDIO
    TITLE "0:"
    INDEX 01 00:42:74
  TRACK 39 AUDIO
    TITLE "3:cjc030_05373"
    INDEX 01 00:43:46
  TRACK 40 AUDIO
    TITLE "0:"
    INDEX 01 00:45:16
  TRACK 41 AUDIO
    TITLE "4:cjc030_05374"
    INDEX 01 00:45:22
  TRACK 42 AUDIO
    TITLE "0:"
    INDEX 01 00:47:27
  TRACK 43 AUDIO
    TITLE "5:cjc030_05375"
    INDEX 01 00:47:34
  TRACK 44 AUDIO
    TITLE "0:"
    INDEX 01 00:49:04
  TRACK 45 AUDIO
    TITLE "6:cjc030_05376"
    INDEX 01 00:49:18
  TRACK 46 AUDIO
    TITLE "0:"
    INDEX 01 00:53:27
  TRACK 47 AUDIO
    TITLE "3:cjc030_05377"
    INDEX 01 00:54:01
  TRACK 48 AUDIO
    TITLE "0:"
    INDEX 01 00:55:14
  TRACK 49 AUDIO
    TITLE "4:cjc030_05378"
    INDEX 01 00:55:22
  TRACK 50 AUDIO
    TITLE "0:"
    INDEX 01 00:57:74
  TRACK 51 AUDIO
    TITLE "5:cjc030_05379"
    INDEX 01 00:58:07
  TRACK 52 AUDIO
    TITLE "0:"
    INDEX 01 00:59:22
  TRACK 53 AUDIO
    TITLE "6:cjc030_05380"
    INDEX 01 00:59:34
  TRACK 54 AUDIO
    TITLE "0:"
    INDEX 01 01:01:64
  TRACK 55 AUDIO
    TITLE "3:cjc030_05381"
    INDEX 01 01:02:36
  TRACK 56 AUDIO
    TITLE "0:"
    INDEX 01 01:04:00
  TRACK 57 AUDIO
    TITLE "4:cjc030_05382"
    INDEX 01 01:04:09
  TRACK 58 AUDIO
    TITLE "0:"
    INDEX 01 01:06:12
  TRACK 59 AUDIO
    TITLE "5:cjc030_05383"
    INDEX 01 01:06:22
  TRACK 60 AUDIO
    TITLE "0:"
    INDEX 01 01:07:57
